<svg xmlns="http://www.w3.org/2000/svg" width="512" height="512" fill="currentColor" viewBox="0 0 512 512">
  <path d="M.006 150.431c.026-7.28.152-14.637.757-21.161.874-9.417 3.01-21.147 9.81-32.9l.512-.872a78.472 78.472 0 0 1 20.851-23l1.025-.742C43.568 64.237 54.552 60.99 63.51 59.159c8.54-1.747 18.641-2.806 28.07-3.836 11.566-1.265 23.57-2.632 33.762-2.708 10.49-.078 24.009 1.036 37.63 8.02l1.319.696 1.017.56a78.318 78.318 0 0 1 9.029 5.913C193.277 55.29 215.967 48 240.38 48l1.229.007c28.247.283 54.129 10.326 74.485 26.9C336.745 58.093 363.083 48 391.809 48l1.553.01c65.145.827 117.802 53.595 118.627 118.882l.01 1.557v214.473c0 6.262.049 14.177-.625 21.075-.74 7.593-2.674 18.529-9.597 29.461a65.746 65.746 0 0 1-20.253 20.298l-.001.001c-10.911 6.939-21.826 8.875-29.401 9.617-6.882.674-14.78.625-21.027.625h-52.099c-6.247 0-14.145.049-21.027-.625-7.399-.724-17.983-2.591-28.638-9.144-10.655 6.552-21.239 8.42-28.638 9.144-6.881.674-14.78.625-21.026.625h-52.1c-6.246 0-14.144.049-21.026-.625-7.399-.724-17.983-2.591-28.639-9.144-10.655 6.552-21.238 8.42-28.637 9.144-6.882.674-14.78.625-21.027.625H80.904c-6.247 0-14.145.049-21.027-.625-7.575-.742-18.49-2.679-29.4-9.617a65.721 65.721 0 0 1-20.255-20.298c-6.924-10.934-8.857-21.874-9.598-29.465-.672-6.897-.623-14.812-.623-21.072l.005-232.491Zm44.47 232.491c0 14.298 0 21.448 3.297 26.654a21.202 21.202 0 0 0 6.535 6.548c5.195 3.303 12.328 3.303 26.596 3.303h47.334c14.268 0 21.402 0 26.597-3.303a21.213 21.213 0 0 0 6.535-6.548c2.797-4.418 3.219-10.235 3.283-20.631-.03-3.164-.138-5.154-.54-6.881a21.202 21.202 0 0 0-15.817-15.851c-2.372-.554-5.244-.554-10.986-.554h-17.12c-23.393 0-42.356-19.005-42.357-42.448 0-23.444 18.964-42.449 42.357-42.45h16.591c6.236 0 9.354.001 11.919-.652a21.2 21.2 0 0 0 15.314-15.347c.652-2.571.652-5.697.652-11.946v-23.304c0-22.877 0-34.316 5.275-42.646a33.931 33.931 0 0 1 10.455-10.478c8.312-5.286 19.727-5.286 42.555-5.286h48.939a3.903 3.903 0 0 1 3.896 3.974c-.55 31.958-26.558 57.577-58.453 57.577h-16.201c-1.413 0-2.12 0-2.712.084a8.481 8.481 0 0 0-7.196 7.213c-.085.593-.085 1.301-.085 2.717v140.255c0 14.298.001 21.448 3.298 26.654a21.207 21.207 0 0 0 6.533 6.548c5.196 3.304 12.33 3.303 26.597 3.303h52.1c14.268 0 21.402.001 26.597-3.303a21.21 21.21 0 0 0 6.534-6.548c2.423-3.826 3.063-8.702 3.233-16.693-.066-1.842-.201-3.215-.489-4.452a21.205 21.205 0 0 0-15.817-15.851c-2.373-.554-5.244-.554-10.986-.554h-17.12c-23.393 0-42.357-19.004-42.357-42.448s18.964-42.449 42.357-42.45h16.591c6.235 0 9.353.001 11.919-.652a21.202 21.202 0 0 0 15.314-15.347c.651-2.571.652-5.696.652-11.946v-12.692c0-22.877-.001-34.316 5.274-42.647a33.935 33.935 0 0 1 10.455-10.476c8.312-5.286 19.727-5.287 42.555-5.287h48.939a3.903 3.903 0 0 1 3.897 3.974c-.55 31.958-26.559 57.577-58.453 57.577H352.56c-1.412 0-2.119 0-2.711.084a8.482 8.482 0 0 0-7.197 7.212c-.084.594-.084 1.302-.084 2.718v123.276c0 14.298 0 21.448 3.297 26.654a21.21 21.21 0 0 0 6.534 6.548c5.195 3.304 12.329 3.303 26.597 3.303h52.099c14.268 0 21.402.001 26.597-3.303a21.196 21.196 0 0 0 6.533-6.548c3.297-5.206 3.298-12.356 3.298-26.654V168.449c0-41.906-33.899-75.877-75.714-75.877-33.016 0-61.096 21.178-71.452 50.717-2.177 5.069-6.349 5.069-8.525 0-10.357-29.539-38.436-50.717-71.452-50.717-33.686 0-62.234 22.047-72.061 52.528-1.819 4.4-7.439 3.4-7.439-3.1v-.081c-.251-15.142-1.322-24.09-5.907-30.756a33.896 33.896 0 0 0-11.806-10.61c-9.282-5.02-21.777-3.655-46.765-.923-20.516 2.243-30.774 3.364-38.116 8.775a33.93 33.93 0 0 0-9.238 10.323c-4.571 7.901-4.571 18.242-4.571 38.924v225.27Z"/>
  <path d="M44.477 382.922c0 14.298 0 21.448 3.296 26.654a21.204 21.204 0 0 0 6.535 6.548c5.195 3.303 12.328 3.303 26.596 3.303h47.334c14.268 0 21.402 0 26.597-3.303a21.224 21.224 0 0 0 6.535-6.548c2.797-4.418 3.219-10.235 3.283-20.631-.031-3.164-.138-5.154-.54-6.881a21.204 21.204 0 0 0-15.817-15.851c-2.372-.554-5.244-.554-10.986-.554h-17.12c-23.393 0-42.356-19.005-42.357-42.448 0-23.444 18.964-42.449 42.357-42.45h16.591c6.236 0 9.354.001 11.919-.652a21.2 21.2 0 0 0 15.314-15.347c.652-2.571.652-5.697.652-11.946v-23.304c0-22.877 0-34.316 5.275-42.646a33.931 33.931 0 0 1 10.455-10.478c8.312-5.286 19.726-5.286 42.555-5.286h48.939a3.903 3.903 0 0 1 3.896 3.974c-.55 31.958-26.558 57.577-58.453 57.577h-16.201c-1.413 0-2.12 0-2.712.084a8.482 8.482 0 0 0-7.197 7.213c-.084.593-.084 1.301-.084 2.717v140.255c0 14.298.001 21.448 3.298 26.654a21.207 21.207 0 0 0 6.533 6.548c5.195 3.304 12.33 3.303 26.597 3.303h52.1c14.267 0 21.402.001 26.597-3.303a21.21 21.21 0 0 0 6.534-6.548c2.423-3.826 3.063-8.702 3.233-16.693-.066-1.842-.202-3.215-.489-4.452a21.205 21.205 0 0 0-15.817-15.851c-2.373-.554-5.244-.554-10.986-.554h-17.12c-23.393 0-42.357-19.004-42.357-42.448s18.964-42.449 42.357-42.45h16.591c6.235 0 9.353.001 11.919-.652a21.202 21.202 0 0 0 15.314-15.347c.651-2.571.652-5.696.652-11.946v-12.692c0-22.877-.001-34.316 5.274-42.647a33.935 33.935 0 0 1 10.455-10.476c8.312-5.286 19.727-5.287 42.555-5.287h48.939a3.903 3.903 0 0 1 3.897 3.974c-.55 31.958-26.559 57.577-58.453 57.577H352.56c-1.412 0-2.119 0-2.711.084a8.482 8.482 0 0 0-7.197 7.212c-.084.594-.084 1.302-.084 2.718v123.276c0 14.298 0 21.448 3.297 26.654a21.21 21.21 0 0 0 6.534 6.548c5.195 3.304 12.329 3.303 26.597 3.303h52.099c14.268 0 21.402.001 26.597-3.303a21.196 21.196 0 0 0 6.533-6.548c3.297-5.206 3.298-12.356 3.298-26.654V168.449c0-41.906-33.899-75.877-75.715-75.877-33.015 0-61.095 21.178-71.451 50.717-2.177 5.069-6.349 5.069-8.525 0-10.357-29.539-38.436-50.717-71.452-50.717-33.686 0-62.234 22.047-72.061 52.528-1.819 3.9-7.439 3.4-7.439-3.1v-.081c-.251-15.142-1.322-24.09-5.907-30.756a33.896 33.896 0 0 0-11.806-10.61c-9.282-5.02-21.777-3.655-46.765-.923-20.516 2.243-30.774 3.364-38.116 8.774a33.943 33.943 0 0 0-9.238 10.324c-4.571 7.901-4.571 18.242-4.571 38.924v225.27Z" opacity=".2"/>
</svg>
